<svg width="303" height="95" viewBox="0 0 303 95" fill="none" xmlns="http://www.w3.org/2000/svg">
<g filter="url(#filter0_i_99_41)">
<g clip-path="url(#clip0_99_41)">
<rect width="303" height="96" rx="20" fill="#334258"/>
<path d="M28.1201 56.9632C27.3126 56.2496 26.6261 55.349 26.0604 54.2613C25.5302 53.1313 25.099 52.0123 24.7668 50.9043C24.382 49.6439 24.0683 48.299 23.8256 46.8694C23.3859 44.0846 23.4742 41.5085 24.0905 39.1411C24.7068 36.7737 25.644 34.7115 26.9019 32.9545C28.1598 31.1976 29.6057 29.7967 31.2396 28.7519C32.9124 27.7037 34.566 27.1081 36.2004 26.9651C36.9397 26.9004 37.5388 27.0244 37.9975 27.3372C38.4951 27.6466 38.8828 28.044 39.1605 28.5295C39.4382 29.0149 39.6204 29.5283 39.707 30.0697C39.8325 30.6077 39.9105 31.0518 39.9412 31.402C40.0501 32.6473 40.1184 33.8765 40.1462 35.0896C40.2128 36.2993 40.2278 37.592 40.1913 38.9676C40.1938 40.3398 40.1269 41.8161 39.9907 43.3965C39.8544 44.9769 39.6557 46.7392 39.3945 48.6834C39.2529 49.7545 39.0396 51.126 38.7545 52.7978C38.4695 54.4696 38.1219 56.3234 37.7118 58.3591C39.4664 58.2448 40.8741 58.2 41.935 58.2249C43.0314 58.2074 43.7369 58.2045 44.0516 58.2161C44.3274 58.2312 44.5339 58.3504 44.6711 58.5737C44.8472 58.7935 44.8017 59.17 44.5346 59.7031C44.2642 60.1973 43.8405 60.5089 43.2636 60.6378C42.7256 60.7633 42.1842 60.8498 41.6394 60.8975C41.3281 60.9247 40.7444 60.9758 39.8883 61.0507C39.0711 61.1222 38.1017 61.2462 36.98 61.4228C36.3739 63.9069 35.6527 66.4208 34.8165 68.9643C34.0158 71.4654 33.078 73.7434 32.003 75.798C30.9314 77.8915 29.709 79.6062 28.3358 80.9419C26.966 82.3165 25.4445 83.077 23.7712 83.2234C21.3585 83.4345 19.2747 83.1462 17.5197 82.3587C15.807 81.6067 14.3903 80.6523 13.2696 79.4956C12.1134 78.3812 11.2473 77.2218 10.6714 76.0174C10.0989 74.8519 9.7837 73.9384 9.72582 73.2769C9.62369 72.1094 9.83116 70.8953 10.3482 69.6345C10.8653 68.3737 11.7589 67.1584 13.029 65.9886C14.2567 64.7832 15.905 63.6783 17.9737 62.6739C20.0425 61.6695 22.5563 60.8221 25.5153 60.1319C26.7469 59.8673 27.9235 59.6468 29.0452 59.4702C30.1635 59.2547 31.2251 59.0638 32.2301 58.8975C32.753 55.9108 33.2709 52.8658 33.7836 49.7625C34.3352 46.6557 34.7905 43.7926 35.1496 41.1732C35.2911 40.1021 35.4259 38.9532 35.5538 37.7265C35.6783 36.4608 35.7513 35.278 35.7727 34.1782C35.8331 33.075 35.8309 32.1538 35.7662 31.4144C35.7404 30.6716 35.6269 30.2698 35.4255 30.209C35.3053 30.1803 35.0271 30.3615 34.5908 30.7526C34.151 31.1048 33.6471 31.6194 33.079 32.2965C32.5108 32.9736 31.9546 33.7869 31.4103 34.7364C30.9014 35.6435 30.4967 36.62 30.1961 37.6658C29.6693 39.7117 29.2947 41.7051 29.0724 43.6459C28.9041 45.3075 28.861 47.0562 28.9432 48.892C29.0254 50.7277 29.4619 52.356 30.2528 53.7769C30.2227 54.3285 30.1451 54.7862 30.0201 55.1501C29.9203 55.3548 29.8384 55.5385 29.7742 55.7009C29.6676 55.8279 29.5434 55.976 29.4013 56.1453C29.2559 56.2756 29.0732 56.4288 28.8534 56.6049C28.669 56.7387 28.4246 56.8581 28.1201 56.9632ZM28.8444 73.3099C29.1942 72.3774 29.5986 70.95 30.0579 69.0277C30.5171 67.1054 30.9896 64.8878 31.4756 62.3749C29.5893 62.7752 27.692 63.2745 25.7837 63.8728C23.8721 64.4321 22.1492 65.1318 20.615 65.9719C19.1163 66.7696 17.9036 67.6991 16.977 68.7605C16.0892 69.8185 15.7033 71.009 15.819 72.332C15.9416 73.7329 16.3212 74.9349 16.9579 75.9379C17.6336 76.9375 18.3911 77.7535 19.2307 78.3859C20.1092 79.0148 20.9723 79.4687 21.8202 79.7474C22.7103 80.0616 23.4472 80.1932 24.031 80.1421C24.6147 80.0911 25.139 79.8099 25.6041 79.2987C26.1114 78.823 26.5502 78.2356 26.9203 77.5366C27.3328 76.8732 27.6818 76.1564 27.9674 75.3864C28.2918 74.613 28.5842 73.9208 28.8444 73.3099ZM63.8034 70.1926C62.9084 70.2709 62.1148 70.1638 61.4226 69.8715C60.7728 69.6147 60.2294 69.2309 59.7926 68.7201C59.3558 68.2094 59.0484 67.6089 58.8704 66.9186C58.689 66.1895 58.6598 65.4078 58.7829 64.5736C58.8519 64.0186 58.9835 63.2817 59.1776 62.3628C59.3683 61.405 59.5539 60.3889 59.7344 59.3144C59.9504 58.1976 60.1291 57.1036 60.2707 56.0325C60.4478 54.9191 60.5378 53.9309 60.5407 53.068C60.5402 52.1662 60.4383 51.4497 60.235 50.9185C60.0283 50.3484 59.672 50.0855 59.1661 50.1298C58.5435 50.1842 57.9201 50.4544 57.296 50.9404C56.6685 51.3874 56.0352 51.9918 55.396 52.7535C54.7958 53.5118 54.1863 54.3886 53.5675 55.3838C52.9843 56.3367 52.4045 57.3285 51.8281 58.3592C51.5936 59.7129 51.4039 60.9059 51.2589 61.9381C51.1105 62.9313 50.9748 63.8451 50.8517 64.6793C50.7642 65.4712 50.6698 66.1853 50.5686 66.8215C50.464 67.4188 50.3772 67.995 50.3081 68.55C50.2254 68.9494 49.9092 69.3691 49.3596 69.8093C48.8065 70.2106 48.2094 70.557 47.5683 70.8483C46.9272 71.1397 46.3732 71.3058 45.9062 71.3466C45.4003 71.3909 45.171 71.2345 45.2182 70.8775C45.2367 70.6406 45.3269 70.1033 45.4889 69.2657C45.612 68.4315 45.7815 67.456 45.9975 66.3392C46.1711 65.1868 46.3592 63.9744 46.5615 62.702C46.7639 61.4295 46.9519 60.2171 47.1256 59.0647C47.2418 58.1527 47.369 57.1417 47.5072 56.0316C47.6201 55.0807 47.7582 53.9707 47.9217 52.7016C48.124 51.4291 48.3551 50.0365 48.6149 48.5237C48.8668 48.2664 49.1239 48.0675 49.3861 47.9269C49.6838 47.744 49.9849 47.6 50.2894 47.495C50.5905 47.351 50.9144 47.2442 51.2613 47.1747C51.5726 47.1474 51.8856 47.1396 52.2003 47.1513C52.4761 47.1664 52.7553 47.2204 53.0379 47.3133C53.356 47.3639 53.6404 47.4763 53.8909 47.6504C53.798 47.933 53.6958 48.3341 53.5844 48.8536C53.4696 49.3342 53.3582 49.8537 53.2502 50.4121C53.149 51.0483 53.0106 51.7074 52.835 52.3894C53.2796 51.6447 53.7826 50.8948 54.3439 50.1399C54.9408 49.3427 55.5834 48.6199 56.2717 47.9715C56.9989 47.3197 57.7752 46.7812 58.6007 46.3561C59.4227 45.8921 60.2813 45.6209 61.1763 45.5426C61.9156 45.4779 62.5959 45.634 63.2171 46.011C63.8382 46.388 64.3385 46.952 64.7179 47.7031C65.1328 48.4118 65.4057 49.2898 65.5365 50.3371C65.7063 51.3809 65.6705 52.5408 65.4292 53.8167L65.0118 56.4412C64.8888 57.2754 64.7209 58.2704 64.5084 59.4261C64.3313 60.5395 64.0866 61.7765 63.7743 63.137C63.6157 64.0135 63.5831 64.7614 63.6765 65.3806C63.8088 65.9964 64.2252 66.2737 64.9256 66.2124C65.6261 66.1511 66.4642 65.6465 67.44 64.6985C68.4547 63.747 69.454 62.6205 70.4381 61.3188C71.4221 60.0172 72.3461 58.7012 73.21 57.3708C74.0705 56.0015 74.7196 54.9056 75.1574 54.0831C75.4634 53.5466 75.7652 53.1869 76.0629 53.004C76.3606 52.8211 76.5924 52.7812 76.7583 52.8843C76.963 52.9841 77.0842 53.2479 77.1216 53.676C77.1557 54.0651 77.0443 54.5846 76.7874 55.2345C76.5627 55.8031 76.1976 56.5605 75.6922 57.5066C75.2257 58.4492 74.6476 59.4605 73.9578 60.5404C73.2681 61.6202 72.5217 62.7246 71.7186 63.8536C70.9121 64.9437 70.0598 65.9593 69.1619 66.9005C68.2605 67.8028 67.3456 68.5495 66.417 69.1405C65.5307 69.767 64.6595 70.1177 63.8034 70.1926ZM90.1426 55.9482C89.2602 57.5155 88.3355 59.0472 87.3685 60.5434C86.4404 62.0362 85.5198 63.3912 84.6068 64.6082C83.7293 65.7829 82.8914 66.7385 82.0932 67.4749C81.3373 68.2468 80.7064 68.6549 80.2005 68.6992C78.9942 68.8047 77.9525 68.3273 77.0755 67.2669C76.234 66.1642 75.526 64.7949 74.9516 63.159C74.4126 61.4809 74.0014 59.6935 73.7178 57.7969C73.4698 55.858 73.3377 54.1247 73.3217 52.5968C73.3446 51.0656 73.4141 49.8439 73.5304 48.9319C73.6433 47.9809 73.8138 47.2406 74.0419 46.7109C74.309 46.1778 74.6268 45.7774 74.9956 45.5099C75.4032 45.239 75.9115 44.9984 76.5205 44.7883C76.7861 44.6867 77.0923 44.601 77.4391 44.5315C77.7859 44.4619 78.0989 44.4542 78.3781 44.5082C78.6929 44.5198 78.9366 44.6161 79.1092 44.7971C79.2819 44.978 79.3269 45.2682 79.2442 45.6676C79.197 46.0246 79.1068 46.5618 78.9735 47.2793C78.8757 47.9545 78.767 48.7286 78.6473 49.6017C78.5277 50.4749 78.4114 51.3869 78.2985 52.3379C78.2246 53.2854 78.1861 54.1906 78.1832 55.0536C78.1958 56.5425 78.3099 57.8461 78.5254 58.9644C78.7374 60.0438 78.9943 60.9624 79.2958 61.7202C79.594 62.4392 79.8963 62.9813 80.2027 63.3466C80.5092 63.7119 80.7402 63.8877 80.8959 63.8741C81.0905 63.8571 81.4186 63.5735 81.8802 63.0234C82.3773 62.4309 82.9192 61.6777 83.5058 60.7637C84.1314 59.8463 84.7645 58.7911 85.4051 57.5979C86.0847 56.4013 86.7024 55.1709 87.2584 53.9067C86.9705 53.3045 86.8085 52.5736 86.7725 51.7141C86.7735 50.3808 86.9615 49.1684 87.3366 48.0769C87.7082 46.9465 88.1535 45.986 88.6725 45.1956C89.2305 44.4017 89.8037 43.783 90.3923 43.3394C91.0164 42.8535 91.5814 42.5884 92.0873 42.5441C93.099 42.4556 93.7455 42.6735 94.0266 43.1979C94.3433 43.68 94.4865 44.1968 94.4564 44.7484C94.45 45.5724 94.1791 46.7332 93.6435 48.2309C93.1435 49.6863 92.4607 51.2949 91.5954 53.0567C91.7968 53.1175 92.0176 53.1766 92.2579 53.234C92.4982 53.2914 92.774 53.3065 93.0853 53.2792C94.4084 53.1635 95.5816 52.904 96.605 52.5008C97.6674 52.0941 98.569 51.6427 99.3098 51.1466C100.09 50.6471 100.731 50.14 101.235 49.6253C101.775 49.0684 102.206 48.6189 102.529 48.277C102.742 48.0231 102.965 47.8859 103.199 47.8655C103.432 47.8451 103.632 47.8864 103.798 47.9895C103.964 48.0926 104.057 48.2609 104.077 48.4944C104.098 48.7279 104.003 48.9911 103.793 49.2839C102.542 51.1187 100.951 52.6499 99.0194 53.8776C97.1267 55.1019 94.8378 55.8315 92.1528 56.0664C91.9193 56.0869 91.6257 56.0929 91.2721 56.0847C90.9185 56.0764 90.542 56.0309 90.1426 55.9482ZM124.895 51.1432C123.878 52.9576 122.701 54.7466 121.365 56.5104C120.026 58.2352 118.576 59.8129 117.015 61.2435C115.49 62.6317 113.885 63.7916 112.202 64.723C110.558 65.6511 108.919 66.1867 107.285 66.3296C106.428 66.4045 105.476 66.2722 104.427 65.9327C103.42 65.6287 102.47 65.0843 101.578 64.2997C100.686 63.5151 99.9274 62.464 99.3024 61.1462C98.7163 59.8251 98.4354 58.1832 98.4597 56.2205C98.4758 54.6114 98.8158 52.8955 99.4798 51.0729C100.179 49.208 101.068 47.4834 102.145 45.8991C103.26 44.3114 104.535 42.9648 105.967 41.8592C107.439 40.7501 108.953 40.1275 110.509 39.9913C111.988 39.862 113.09 40.138 113.817 40.8195C114.543 41.501 114.915 42.3899 114.932 43.4863C114.921 44.7029 114.668 45.8426 114.173 46.9054C113.716 47.9648 113.135 48.9372 112.428 49.8225C111.721 50.7077 110.949 51.5203 110.112 52.2601C109.314 52.9966 108.549 53.6712 107.819 54.2841C107.014 54.9427 106.246 55.5785 105.515 56.1914C104.781 56.7653 104.141 57.2919 103.595 57.771C103.719 58.7404 103.966 59.5423 104.335 60.1766C104.704 60.8109 105.141 61.3217 105.645 61.7089C106.146 62.0571 106.697 62.303 107.298 62.4465C107.934 62.5477 108.563 62.5711 109.186 62.5166C110.509 62.4008 111.855 61.8714 113.223 60.9282C114.588 59.9462 115.9 58.8118 117.16 57.5253C118.456 56.1964 119.631 54.8388 120.686 53.4525C121.78 52.0628 122.675 50.8669 123.372 49.8649C123.617 49.5298 123.874 49.3308 124.143 49.2681C124.447 49.163 124.684 49.1815 124.854 49.3235C125.058 49.4232 125.176 49.6482 125.207 49.9984C125.234 50.3098 125.13 50.6914 124.895 51.1432ZM109.166 43.4615C108.699 43.5023 108.155 43.7852 107.534 44.31C106.953 44.8315 106.39 45.5669 105.845 46.5164C105.297 47.427 104.807 48.5482 104.375 49.88C103.939 51.1729 103.656 52.6485 103.527 54.3067C103.963 53.9156 104.439 53.5211 104.953 53.1232C105.464 52.6864 105.973 52.2302 106.48 51.7545C108.041 50.3239 109.11 49.0933 109.686 48.0626C110.262 47.0318 110.559 46.1628 110.575 45.4556C110.589 44.7094 110.465 44.1909 110.204 43.9C109.94 43.5702 109.594 43.424 109.166 43.4615ZM139.218 63.5946C138.323 63.6729 137.53 63.5659 136.838 63.2735C136.188 63.0167 135.644 62.6329 135.208 62.1222C134.771 61.6114 134.463 61.0109 134.285 60.3207C134.104 59.5915 134.075 58.8099 134.198 57.9756C134.267 57.4206 134.399 56.6837 134.593 55.7649C134.783 54.8071 134.969 53.791 135.149 52.7164C135.365 51.5996 135.544 50.5057 135.686 49.4346C135.863 48.3211 135.953 47.333 135.956 46.4701C135.955 45.5682 135.853 44.8517 135.65 44.3206C135.443 43.7505 135.087 43.4875 134.581 43.5318C133.959 43.5863 133.335 43.8565 132.711 44.3424C132.084 44.7894 131.45 45.3938 130.811 46.1555C130.211 46.9139 129.601 47.7906 128.983 48.7858C128.399 49.7387 127.82 50.7305 127.243 51.7613C127.009 53.115 126.819 54.3079 126.674 55.3401C126.526 56.3334 126.39 57.2471 126.267 58.0813C126.179 58.8732 126.085 59.5873 125.984 60.2235C125.879 60.8209 125.792 61.397 125.723 61.952C125.64 62.3514 125.324 62.7712 124.775 63.2114C124.222 63.6127 123.624 63.959 122.983 64.2504C122.342 64.5417 121.788 64.7078 121.321 64.7487C120.815 64.7929 120.586 64.6366 120.633 64.2795C120.652 64.0426 120.742 63.5054 120.904 62.6678C121.027 61.8336 121.197 60.858 121.413 59.7412C121.586 58.5889 121.774 57.3765 121.977 56.104C122.179 54.8315 122.367 53.6191 122.541 52.4668C122.657 51.5547 122.784 50.5437 122.922 49.4337C123.035 48.4827 123.173 47.3727 123.337 46.1036C123.539 44.8312 123.77 43.4385 124.03 41.9258C124.282 41.6684 124.539 41.4695 124.801 41.3289C125.099 41.146 125.4 41.0021 125.704 40.897C126.006 40.753 126.329 40.6463 126.676 40.5767C126.988 40.5495 127.301 40.5417 127.615 40.5534C127.891 40.5684 128.17 40.6224 128.453 40.7153C128.771 40.7659 129.055 40.8783 129.306 41.0524C129.213 41.3351 129.111 41.7361 128.999 42.2556C128.885 42.7362 128.773 43.2557 128.665 43.8141C128.564 44.4503 128.426 45.1094 128.25 45.7914C128.695 45.0467 129.198 44.2969 129.759 43.542C130.356 42.7447 130.998 42.0219 131.687 41.3735C132.414 40.7217 133.19 40.1833 134.016 39.7581C134.838 39.2941 135.696 39.0229 136.591 38.9446C137.331 38.8799 138.011 39.0361 138.632 39.4131C139.253 39.7901 139.754 40.3541 140.133 41.1051C140.548 41.8138 140.821 42.6918 140.952 43.7391C141.121 44.783 141.086 45.9428 140.844 47.2187L140.427 49.8432C140.304 50.6774 140.136 51.6724 139.923 52.8281C139.746 53.9416 139.502 55.1785 139.189 56.539C139.031 57.4156 138.998 58.1635 139.092 58.7827C139.224 59.3985 139.64 59.6757 140.341 59.6145C141.041 59.5532 141.879 59.0485 142.855 58.1005C143.87 57.1491 144.869 56.0225 145.853 54.7209C146.837 53.4192 147.761 52.1032 148.625 50.7729C149.486 49.4036 150.135 48.3077 150.572 47.4851C150.878 46.9486 151.18 46.5889 151.478 46.406C151.776 46.2231 152.007 46.1832 152.173 46.2864C152.378 46.3861 152.499 46.65 152.537 47.078C152.571 47.4672 152.459 47.9867 152.202 48.6365C151.978 49.2051 151.613 49.9625 151.107 50.9086C150.641 51.8513 150.063 52.8625 149.373 53.9424C148.683 55.0222 147.937 56.1267 147.134 57.2556C146.327 58.3457 145.475 59.3613 144.577 60.3026C143.676 61.2049 142.761 61.9515 141.832 62.5425C140.946 63.169 140.075 63.5197 139.218 63.5946ZM169.611 44.5843C169.746 44.3372 169.929 44.184 170.159 44.1247C170.424 44.023 170.64 44.0237 170.806 44.1269C170.972 44.23 171.067 44.4177 171.091 44.6901C171.153 44.9591 171.088 45.3373 170.896 45.8247C170.247 47.3715 169.355 49.0572 168.221 50.8818C167.125 52.7029 165.944 54.4336 164.675 56.0738C163.404 57.6751 162.149 59.0201 160.911 60.1087C159.673 61.1973 158.607 61.7807 157.712 61.859C156.428 61.9714 155.335 61.812 154.435 61.3811C153.535 60.9501 152.799 60.387 152.229 59.6919C151.697 58.9934 151.296 58.2246 151.027 57.3856C150.754 56.5076 150.624 55.6955 150.637 54.9493C150.622 54.3233 150.661 53.2023 150.755 51.5864C150.845 49.9316 150.993 48.0365 151.199 45.9011C151.4 43.7268 151.629 41.4129 151.885 38.9594C152.177 36.4636 152.496 34.0633 152.843 31.7586C152.189 31.8943 151.534 32.03 150.879 32.1657C150.224 32.3015 149.625 32.3931 149.08 32.4408C147.835 32.5497 146.655 32.5157 145.542 32.3386C144.386 32.126 143.524 31.9074 142.955 31.6826C142.63 31.5542 142.475 31.3521 142.491 31.0763C142.502 30.7616 142.593 30.4595 142.764 30.1701C142.931 29.8418 143.162 29.5667 143.457 29.3449C143.709 29.0876 143.951 28.9487 144.185 28.9283C144.931 28.9414 145.735 28.9495 146.598 28.9524C147.458 28.9164 148.392 28.8347 149.4 28.7073C150.136 28.6037 150.831 28.484 151.486 28.3483C152.18 28.2092 152.852 28.0523 153.504 27.8777C153.846 25.9656 154.191 24.3081 154.539 22.9053C154.922 21.4601 155.285 20.4481 155.626 19.8693C155.726 19.6645 155.965 19.4867 156.344 19.3359C156.759 19.1428 157.198 19.0064 157.661 18.9266C158.121 18.8079 158.569 18.7688 159.004 18.8092C159.435 18.8106 159.758 18.9196 159.973 19.136C160.195 19.4303 160.343 20.2213 160.416 21.5088C160.49 22.7964 160.419 24.4495 160.203 26.4681C161.838 26.3252 163.286 26.2965 164.548 26.3821C165.846 26.4254 166.953 26.5246 167.868 26.6798C168.78 26.7961 169.519 26.9471 170.084 27.1329C170.646 27.2799 171.066 27.3803 171.345 27.4343C171.625 27.4883 171.778 27.671 171.805 27.9823C171.871 28.2902 171.842 28.626 171.717 28.9899C171.627 29.3114 171.437 29.6025 171.146 29.8633C170.855 30.124 170.512 30.2324 170.116 30.1887C169.723 30.1838 169.269 30.1451 168.753 30.0726C168.276 29.9967 167.684 29.9505 166.976 29.934C166.308 29.914 165.503 29.906 164.563 29.9099C163.622 29.9138 162.529 29.9702 161.284 30.0791C161.05 30.0995 160.78 30.1428 160.472 30.209C160.199 30.2328 159.907 30.2583 159.596 30.2856C159.495 30.9218 159.394 31.5581 159.293 32.1943C159.227 32.7882 159.106 33.4262 158.931 34.1081C158.561 35.7089 158.125 37.4528 157.624 39.3396C157.18 40.9861 156.639 42.8764 156.002 45.0103C155.366 47.1442 154.644 49.4229 153.836 51.8462C153.749 53.5399 153.881 54.8224 154.232 55.6936C154.618 56.5224 155.042 57.1127 155.504 57.4644C156.047 57.8482 156.69 58.0272 157.433 58.0014C158.024 58.0282 158.707 57.7723 159.483 57.2339C160.295 56.6531 161.113 55.915 161.936 55.0195C162.76 54.124 163.577 53.1507 164.387 52.0995C165.235 51.0449 166.008 50.0167 166.705 49.0146C167.401 48.0126 168.009 47.1164 168.528 46.326C169.044 45.4966 169.405 44.9161 169.611 44.5843ZM196.329 45.423C195.852 46.2489 195.237 47.283 194.483 48.5254C193.725 49.7288 192.931 50.955 192.099 52.2042C191.303 53.411 190.499 54.5399 189.69 55.5911C188.915 56.5999 188.253 57.3244 187.703 57.7646C187.335 58.0322 186.904 58.2659 186.412 58.4658C185.92 58.6657 185.403 58.809 184.862 58.8955C184.359 58.9787 183.869 58.9824 183.392 58.9065C182.918 58.8695 182.496 58.7496 182.125 58.5467C181.751 58.305 181.425 57.9414 181.148 57.4559C180.916 57.0449 180.672 56.4977 180.416 55.8143C180.199 55.1274 180.064 54.257 180.011 53.2029C179.213 54.8411 178.288 56.1377 177.234 57.0925C176.177 58.0085 175.16 58.7052 174.182 59.1829C173.052 59.7131 171.907 60.0682 170.746 60.2481C170.201 60.2958 169.6 60.1523 168.944 59.8176C168.291 59.5219 167.716 59.0036 167.22 58.2628C166.72 57.483 166.358 56.4756 166.132 55.2406C165.903 53.9667 165.926 52.4354 166.2 50.6468C166.538 48.2254 167.205 45.9908 168.202 43.943C169.238 41.8917 170.397 40.1238 171.679 38.6393C172.957 37.1158 174.247 35.9443 175.547 35.1247C176.848 34.3051 177.949 33.895 178.851 33.8946C179.919 33.9972 180.802 34.2336 181.501 34.6038C182.08 34.9453 182.481 35.4983 182.705 36.263C182.964 36.9853 182.74 38.0049 182.031 39.3216C182.566 39.1572 183.007 39.0402 183.354 38.9707C183.739 38.8977 184.029 38.8527 184.224 38.8357C184.458 38.8153 184.615 38.8211 184.696 38.8532C184.742 38.9276 184.777 39.1011 184.8 39.3735C184.821 39.6069 184.802 40.0596 184.743 40.7313C184.684 41.4031 184.587 42.3134 184.452 43.4623C184.318 44.6112 184.134 46.0978 183.901 47.9218C183.854 48.2789 183.805 48.6164 183.755 48.9346C183.74 49.2104 183.707 49.5073 183.656 49.8255C183.641 50.1013 183.612 50.4371 183.568 50.8331C183.524 51.229 183.469 51.724 183.404 52.3179C183.396 52.6715 183.41 53.0623 183.448 53.4904C183.521 53.8761 183.631 54.239 183.778 54.579C183.925 54.919 184.126 55.1956 184.38 55.4086C184.669 55.5794 185.048 55.6443 185.515 55.6034C185.904 55.5694 186.389 55.2917 186.971 54.7702C187.549 54.2099 188.156 53.5294 188.792 52.7287C189.424 51.8892 190.071 50.9895 190.732 50.0298C191.429 49.0278 192.07 48.0698 192.657 47.1558C193.244 46.2418 193.761 45.432 194.209 44.7262C194.696 44.017 195.043 43.4965 195.249 43.1648C195.529 42.7873 195.824 42.5655 196.132 42.4993C196.436 42.3943 196.676 42.4517 196.853 42.6715C197.029 42.8914 197.079 43.2399 197.003 43.7171C196.966 44.1909 196.741 44.7595 196.329 45.423ZM179.451 49.4876C179.577 48.6923 179.731 47.7574 179.911 46.6829C180.092 45.6084 180.237 44.5762 180.346 43.5863C180.455 42.5964 180.522 41.7868 180.545 41.1574C180.604 40.4856 180.557 40.176 180.405 40.2285C180.214 40.2845 180.005 40.3616 179.778 40.4598C179.591 40.5547 179.343 40.6352 179.035 40.7013C178.727 40.7675 178.421 40.8531 178.116 40.9581C178.373 40.3083 178.504 39.7871 178.509 39.3945C178.549 38.9597 178.54 38.6272 178.48 38.3971C178.418 38.1281 178.321 37.9209 178.191 37.7755C177.732 37.4627 176.999 37.8209 175.991 38.8502C175.018 39.8371 173.939 41.6177 172.753 44.1918C172.257 45.2547 171.886 46.3851 171.638 47.5832C171.386 48.7423 171.227 49.8346 171.16 50.8599C171.132 51.8819 171.19 52.7786 171.336 53.5501C171.479 54.2826 171.677 54.7555 171.931 54.9685C172.396 55.3591 172.902 55.5306 173.446 55.4829C173.988 55.3963 174.519 55.193 175.04 54.873C175.596 54.5106 176.127 54.0721 176.631 53.5575C177.173 53.0394 177.637 52.5087 178.021 51.9654C178.443 51.4187 178.772 50.9194 179.007 50.4675C179.281 50.0122 179.429 49.6856 179.451 49.4876ZM207.94 64.5227C208.085 64.3924 208.321 64.1757 208.648 63.8726C208.935 63.573 209.28 63.0331 209.682 62.2529C210.046 61.4761 210.438 60.3634 210.861 58.9148C211.283 57.4662 211.68 55.5101 212.053 53.0464C212.252 51.735 212.517 50.0649 212.85 48.036C213.182 46.0071 213.541 43.8387 213.927 41.5306C214.353 39.2191 214.773 36.8493 215.188 34.421C215.599 31.9539 216.003 29.6247 216.4 27.4333C216.793 25.2031 217.146 23.192 217.46 21.4C217.774 19.608 218.024 18.2137 218.211 17.217C217.513 17.7487 216.839 18.337 216.19 18.982C215.611 19.5423 215.001 20.1839 214.358 20.9067C213.712 21.5907 213.089 22.3118 212.489 23.0701C211.945 22.6863 211.515 22.2534 211.199 21.7713C211.023 21.5515 210.864 21.3104 210.724 21.0483C210.439 20.485 210.27 19.892 210.215 19.2694C210.161 18.6468 210.591 17.9621 211.506 17.2155C211.981 16.821 212.696 16.2487 213.65 15.4987C214.643 14.7452 215.87 13.9908 217.334 13.2354C218.793 12.4411 220.515 11.7219 222.497 11.0779C224.48 10.4339 226.697 10.0047 229.149 9.79021C231.6 9.57573 233.608 9.89022 235.172 10.7337C236.775 11.5738 238.026 12.6602 238.927 13.993C239.867 15.3224 240.522 16.7552 240.891 18.2913C241.261 19.8274 241.438 21.1843 241.424 22.3619C241.381 24.5615 240.88 26.8993 239.92 29.3752C238.96 31.8511 237.538 34.191 235.652 36.3949C233.764 38.56 231.402 40.4723 228.567 42.132C225.732 43.7916 222.416 44.8855 218.62 45.4137C218.438 46.9197 218.259 48.4646 218.084 50.0484C217.909 51.6322 217.713 53.1982 217.495 54.7465C217.274 56.2559 217.025 57.6696 216.749 58.9878C216.514 60.3416 216.243 61.5024 215.936 62.4704C215.635 63.5162 215.199 64.3582 214.628 64.9964C214.059 65.6734 213.094 66.0716 211.732 66.1907C211.032 66.252 210.375 66.1331 209.76 65.8339C209.107 65.5382 208.5 65.1011 207.94 64.5227ZM219.445 36.6954C219.383 37.3282 219.299 38.159 219.192 39.1878C219.122 40.1743 219.024 41.3003 218.9 42.566C219.937 42.3184 221.08 41.9439 222.331 41.4424C223.577 40.902 224.812 40.2254 226.035 39.4126C227.258 38.5998 228.43 37.6542 229.551 36.5758C230.708 35.4551 231.736 34.2084 232.635 32.8357C233.531 31.4242 234.239 29.8722 234.757 28.18C235.311 26.4454 235.597 24.5578 235.615 22.5173C235.639 20.5546 235.381 18.9499 234.84 17.7032C234.336 16.4141 233.66 15.4145 232.814 14.7043C231.964 13.9552 231.019 13.4693 229.98 13.2465C228.938 12.9848 227.911 12.8982 226.899 12.9867C225.926 13.0718 224.985 13.2914 224.075 13.6455C223.165 13.9996 222.261 14.4316 221.365 14.9413C221.485 14.97 221.63 15.0554 221.799 15.1974C222.053 15.4105 222.257 15.7259 222.411 16.1438C221.807 20.0001 221.305 23.2203 220.904 25.8041C220.541 28.3846 220.255 30.4879 220.044 32.114C219.779 34.0193 219.58 35.5464 219.445 36.6954ZM240.981 52.927C240.746 53.3789 240.478 53.6769 240.177 53.8208C239.84 54.0071 239.55 54.0521 239.306 53.9558C239.027 53.9018 238.835 53.7226 238.73 53.4181C238.625 53.1136 238.668 52.7176 238.861 52.2302C238.957 51.9865 239.184 51.4374 239.54 50.5827C239.858 49.7315 240.259 48.7161 240.744 47.5365C241.187 46.3214 241.681 45.0234 242.227 43.6425C242.769 42.2226 243.28 40.884 243.758 39.6266C244.275 38.3658 244.746 37.2463 245.17 36.2681C245.59 35.251 245.899 34.5182 246.095 34.0697C245.633 33.718 245.317 33.4712 245.148 33.3291C244.975 33.1482 244.824 32.7692 244.695 32.1923C244.573 31.6933 244.632 31.0215 244.872 30.1771C245.112 29.3327 245.452 28.5186 245.894 27.735C246.331 26.9125 246.838 26.2016 247.413 25.6023C247.988 25.0031 248.567 24.6779 249.151 24.6268C250.24 24.5315 251.03 24.8153 251.519 25.4783C252.047 26.1379 252.383 26.834 252.525 27.5665C252.647 28.0656 252.665 28.7111 252.577 29.503C252.489 30.2949 252.259 31.0209 251.885 31.6809C252.009 31.7486 252.173 31.8322 252.378 31.9319C252.579 31.9928 252.894 32.0044 253.322 31.967C253.945 31.9125 254.369 31.8361 254.596 31.7379C254.861 31.6362 255.267 31.5616 255.811 31.5139C256.473 31.456 257.033 31.5835 257.492 31.8963C257.947 32.1701 258.333 32.5481 258.65 33.0301C258.963 33.4733 259.203 33.9816 259.371 34.5551C259.575 35.0862 259.716 35.5836 259.796 36.0472C259.998 37.0098 259.833 38.0437 259.303 39.1488C258.772 40.254 258.114 41.4683 257.327 42.7919C256.851 43.6178 256.383 44.541 255.923 45.5616C255.463 46.5821 255.306 47.4781 255.452 48.2495C255.574 48.7486 255.746 49.1453 255.968 49.4396C256.19 49.7338 256.748 49.8418 257.643 49.7635C258.305 49.7057 259.004 49.4092 259.742 48.8741C260.515 48.2968 261.277 47.6026 262.03 46.7918C262.818 45.9386 263.581 45.0288 264.32 44.0622C265.056 43.0568 265.736 42.0954 266.362 41.178C266.984 40.2217 267.498 39.3729 267.904 38.6316C268.348 37.8869 268.674 37.3487 268.88 37.017C269.047 36.6886 269.281 36.4525 269.582 36.3085C269.884 36.1645 270.156 36.1407 270.4 36.237C270.643 36.3333 270.8 36.5549 270.87 36.9017C270.978 37.2451 270.883 37.724 270.584 38.3383C270.384 38.7479 270.03 39.4063 269.521 40.3134C269.051 41.2172 268.454 42.2302 267.728 43.3524C267.042 44.4711 266.262 45.6373 265.388 46.8509C264.51 48.0256 263.567 49.1276 262.56 50.1569C261.587 51.1438 260.582 51.9768 259.543 52.6558C258.544 53.3315 257.557 53.7118 256.585 53.7969C255.573 53.8855 254.719 53.7641 254.024 53.4328C253.328 53.1016 252.742 52.6823 252.267 52.1749C251.826 51.6253 251.48 51.0282 251.228 50.3837C251.011 49.6968 250.896 49.0598 250.884 48.4727C250.882 48.0024 250.956 47.5057 251.107 46.9828C251.292 46.4176 251.498 45.8507 251.722 45.2821C251.983 44.6711 252.245 44.0796 252.508 43.5076C252.807 42.8932 253.069 42.3018 253.294 41.7331C253.857 40.5468 254.299 39.5474 254.62 38.7351C254.976 37.8804 255.131 37.1807 255.083 36.6359C255.053 36.2857 254.948 35.9812 254.768 35.7224C254.589 35.4636 254.324 35.3496 253.973 35.3802C253.74 35.4006 253.567 35.4354 253.453 35.4845C253.375 35.4914 253.278 35.4999 253.161 35.5101C253.084 35.5169 252.949 35.5483 252.758 35.6042C252.602 35.6178 252.349 35.6399 251.999 35.6706C251.493 35.7148 251.058 35.6745 250.694 35.5495C250.331 35.4244 249.99 35.3366 249.672 35.286C249.54 35.5721 249.241 36.1864 248.774 37.1291C248.308 38.0718 247.757 39.1786 247.124 40.4496C246.529 41.7172 245.881 43.0483 245.179 44.4429C244.517 45.8341 243.886 47.144 243.288 48.3727C242.686 49.5625 242.187 50.5864 241.792 51.4444C241.354 52.267 241.084 52.7612 240.981 52.927ZM283.972 40.1079C283.713 41.6206 283.308 43.048 282.759 44.3901C282.21 45.7321 281.509 46.9109 280.657 47.9266C279.843 48.9388 278.875 49.7489 277.752 50.357C276.671 51.0005 275.45 51.3818 274.088 51.501C272.492 51.6406 271.197 51.401 270.202 50.7822C269.249 50.199 268.495 49.4219 267.939 48.451C267.423 47.4767 267.073 46.3898 266.889 45.1903C266.667 43.9942 266.51 42.8708 266.418 41.8201C266.353 41.0807 266.379 40.255 266.495 39.343C266.573 38.4344 266.726 37.4995 266.956 36.5383C267.185 35.5771 267.493 34.6091 267.878 33.6344C268.302 32.6562 268.811 31.749 269.405 30.9128C269.58 30.2309 269.879 29.6165 270.302 29.0698C270.764 28.5197 271.292 28.0617 271.888 27.6959C272.518 27.2878 273.197 26.9736 273.922 26.7532C274.645 26.494 275.356 26.3337 276.057 26.2724C276.173 26.2622 276.272 26.2732 276.354 26.3053C276.474 26.334 276.594 26.3627 276.714 26.3914C277.223 26.386 277.863 26.5261 278.633 26.8117C279.442 27.0938 280.227 27.5545 280.989 28.1936C281.79 28.8294 282.491 29.6699 283.092 30.7153C283.69 31.7217 284.055 32.9837 284.188 34.5013C284.215 34.8127 284.229 35.2035 284.231 35.6739C284.23 36.1053 284.223 36.4784 284.212 36.7931C285.076 36.3646 285.973 35.8548 286.901 35.2638C287.83 34.6729 288.718 34.0658 289.565 33.4427C290.448 32.7773 291.253 32.1187 291.98 31.4669C292.707 30.8151 293.284 30.2353 293.71 29.7275C294.069 29.3432 294.382 29.1197 294.651 29.0569C294.92 28.9942 295.122 29.055 295.255 29.2394C295.389 29.4237 295.433 29.6944 295.385 30.0514C295.338 30.4085 295.158 30.8163 294.845 31.275C294.671 31.5255 294.206 32.0368 293.45 32.8087C292.733 33.5772 291.866 34.4178 290.848 35.3303C289.83 36.2428 288.713 37.1444 287.496 38.035C286.28 38.9256 285.106 39.6166 283.972 40.1079ZM273.331 32.0985C273.245 32.459 273.219 32.8338 273.253 33.2229C273.308 33.8455 273.405 34.5037 273.544 35.1973C273.679 35.852 273.927 36.4382 274.286 36.9557C274.645 37.4733 275.172 37.8977 275.868 38.229C276.599 38.5179 277.567 38.6096 278.774 38.5041C278.968 38.487 279.163 38.47 279.357 38.453C279.549 38.3971 279.74 38.3411 279.931 38.2852C280.003 37.7691 280.061 37.3131 280.105 36.9171C280.185 36.4789 280.211 36.1041 280.183 35.7928C280.197 35.0466 280.13 34.2878 279.984 33.5163C279.838 32.7448 279.621 32.058 279.333 31.4558C279.081 30.8113 278.763 30.3098 278.378 29.9513C278.03 29.5505 277.622 29.3705 277.155 29.4113C276.415 29.476 275.714 29.753 275.051 30.2424C274.424 30.6894 273.85 31.3081 273.331 32.0985ZM270.494 42.6986C270.556 43.3991 270.656 44.0961 270.795 44.7898C270.931 45.4445 271.139 46.034 271.42 46.5584C271.698 47.0439 272.047 47.4447 272.467 47.7609C272.883 48.0381 273.402 48.1495 274.025 48.095C274.726 48.0338 275.354 47.8219 275.91 47.4596C276.464 47.0583 276.951 46.5842 277.374 46.0375C277.793 45.4519 278.149 44.813 278.442 44.1208C278.769 43.3863 279.037 42.6374 279.245 41.8742C278.976 41.937 278.707 41.9997 278.438 42.0625C278.205 42.0829 277.932 42.1067 277.621 42.134C276.142 42.2633 274.82 41.9476 273.656 41.1869C272.527 40.3838 271.611 39.3268 270.908 38.0158C270.746 38.8535 270.621 39.6682 270.534 40.4601C270.446 41.252 270.433 41.9982 270.494 42.6986Z" fill="#CAD8DB"/>
</g>
</g>
<defs>
<filter id="filter0_i_99_41" x="0" y="0" width="303" height="100" filterUnits="userSpaceOnUse" color-interpolation-filters="sRGB">
<feFlood flood-opacity="0" result="BackgroundImageFix"/>
<feBlend mode="normal" in="SourceGraphic" in2="BackgroundImageFix" result="shape"/>
<feColorMatrix in="SourceAlpha" type="matrix" values="0 0 0 0 0 0 0 0 0 0 0 0 0 0 0 0 0 0 127 0" result="hardAlpha"/>
<feOffset dy="4"/>
<feGaussianBlur stdDeviation="2"/>
<feComposite in2="hardAlpha" operator="arithmetic" k2="-1" k3="1"/>
<feColorMatrix type="matrix" values="0 0 0 0 0 0 0 0 0 0 0 0 0 0 0 0 0 0 0.25 0"/>
<feBlend mode="normal" in2="shape" result="effect1_innerShadow_99_41"/>
</filter>
<clipPath id="clip0_99_41">
<rect width="303" height="96" rx="20" fill="white"/>
</clipPath>
</defs>
</svg>
